<svg width="24" height="24" viewBox="0 0 24 24" fill="none" xmlns="http://www.w3.org/2000/svg">
<path fill-rule="evenodd" clip-rule="evenodd" d="M10.2001 0.601562C10.6419 0.601562 11.0001 0.959735 11.0001 1.40156V2.20156C12.3256 2.20156 13.4001 3.27608 13.4001 4.60156V11.0016C13.4001 12.327 12.3256 13.4016 11.0001 13.4016H3.0001C1.67461 13.4016 0.600098 12.327 0.600098 11.0016V4.60156C0.600098 3.27608 1.67461 2.20156 3.0001 2.20156V1.40156C3.0001 0.959735 3.35827 0.601562 3.8001 0.601562C4.24193 0.601562 4.6001 0.959735 4.6001 1.40156V2.20156H9.4001V1.40156C9.4001 0.959735 9.75827 0.601562 10.2001 0.601562ZM11.8001 7.00156H2.2001V11.0016C2.2001 11.4434 2.55827 11.8016 3.0001 11.8016H11.0001C11.4419 11.8016 11.8001 11.4434 11.8001 11.0016V7.00156ZM11.0001 3.80156H3.0001C2.55827 3.80156 2.2001 4.15973 2.2001 4.60156V5.40156H11.8001V4.60156C11.8001 4.15973 11.4419 3.80156 11.0001 3.80156Z" fill="#0E1111"/>
</svg>
