<svg fill="none" viewBox="0 0 16 16">
  <path d="M8 0.557129C3.58867 0.557129 0 3.5398 0 7.20713C0.00988202 8.04845 0.196406 8.87832 0.547486 9.64296C0.898567 10.4076 1.40637 11.0899 2.038 11.6458L0.620667 14.4751C0.558582 14.5988 0.53655 14.7388 0.557626 14.8756C0.578702 15.0124 0.641842 15.1393 0.738283 15.2386C0.834724 15.3379 0.959684 15.4047 1.09582 15.4298C1.23196 15.4548 1.37252 15.4369 1.498 15.3785L5.48533 13.5225C6.30487 13.7455 7.15064 13.8577 8 13.8558C12.4113 13.8558 16 10.8725 16 7.2058C16 3.53913 12.4113 0.557129 8 0.557129ZM8 12.5238C7.19552 12.5255 6.39523 12.4078 5.62533 12.1745C5.46799 12.1265 5.29845 12.1383 5.14933 12.2078L3.10267 13.1605C3.07128 13.1751 3.03611 13.1796 3.00204 13.1733C2.96798 13.1671 2.93671 13.1504 2.91259 13.1255C2.88846 13.1006 2.87268 13.0689 2.86744 13.0347C2.8622 13.0004 2.86775 12.9654 2.88333 12.9345L3.46267 11.7778C3.53093 11.6414 3.55036 11.4857 3.51773 11.3368C3.48509 11.1878 3.40236 11.0545 3.28333 10.9591C2.69392 10.5236 2.21182 9.9592 1.87386 9.30893C1.5359 8.65867 1.35102 7.93976 1.33333 7.20713C1.33333 4.2738 4.324 1.89046 8 1.89046C11.676 1.89046 14.6667 4.27513 14.6667 7.20713C14.6667 10.1391 11.676 12.5238 8 12.5238Z" fill="currentColor" />
</svg>
