<svg height="10" viewBox="0 0 10 10" width="10">
  <g fill="none" fillRule="evenodd" id="icn_x" stroke="none" strokeWidth="1">
    <g fill="currentColor">
      <path
        d="M-1,6 L11,6 C11.2761424,6 11.5,5.77614237 11.5,5.5 C11.5,5.22385763 11.2761424,5 11,5 L-1,5 C-1.27614237,5 -1.5,5.22385763 -1.5,5.5 C-1.5,5.77614237 -1.27614237,6 -1,6 Z"
        id="Line"
        transform="translate(5.000000, 5.500000) rotate(-315.000000) translate(-5.000000, -5.500000) "
      />
      <path
        d="M-1,6 L11,6 C11.2761424,6 11.5,5.77614237 11.5,5.5 C11.5,5.22385763 11.2761424,5 11,5 L-1,5 C-1.27614237,5 -1.5,5.22385763 -1.5,5.5 C-1.5,5.77614237 -1.27614237,6 -1,6 Z"
        id="Line-Copy"
        transform="translate(5.000000, 5.500000) rotate(-45.000000) translate(-5.000000, -5.500000) "
      />
    </g>
  </g>
</svg>
