<svg width="24" height="24" viewBox="0 0 24 24" fill="none" xmlns="http://www.w3.org/2000/svg">
<path fill-rule="evenodd" clip-rule="evenodd" d="M10.1715 14.8287L10.1715 21.8997C10.1715 22.452 9.7238 22.8997 9.17151 22.8997C8.61923 22.8997 8.17151 22.452 8.17151 21.8997V15.8287L2.10045 15.8287C1.54816 15.8287 1.10045 15.3809 1.10045 14.8287C1.10045 14.2764 1.54816 13.8287 2.10045 13.8287L9.17151 13.8287C9.7238 13.8287 10.1715 14.2764 10.1715 14.8287ZM14.8284 1.10074C15.3382 1.10074 15.7589 1.48222 15.8206 1.9753L15.8284 2.10074L15.8284 8.1718L21.8994 8.1718C22.4517 8.1718 22.8994 8.61952 22.8994 9.1718C22.8994 9.68161 22.518 10.1023 22.0249 10.164L21.8994 10.1718L14.8284 10.1718C14.3186 10.1718 13.8979 9.79032 13.8362 9.29724L13.8284 9.1718L13.8284 2.10074C13.8284 1.54845 14.2761 1.10074 14.8284 1.10074Z" fill="#1A1A1A"/>
</svg>
