<svg width="24" height="24" viewBox="0 0 24 24" fill="none" xmlns="http://www.w3.org/2000/svg">
<path fill-rule="evenodd" clip-rule="evenodd" d="M12 2C17.5228 2 22 6.47715 22 12C22 17.5228 17.5228 22 12 22C6.47715 22 2 17.5228 2 12C2 6.47715 6.47715 2 12 2ZM12 4C7.58172 4 4 7.58172 4 12C4 16.4183 7.58172 20 12 20C16.4183 20 20 16.4183 20 12C20 7.58172 16.4183 4 12 4ZM15.6066 9.94975C15.9971 9.55922 15.9971 8.92606 15.6066 8.53553C15.2161 8.14501 14.5829 8.14501 14.1924 8.53553L12.071 10.6569L9.94972 8.53553C9.5592 8.14501 8.92604 8.14501 8.53551 8.53553C8.14499 8.92606 8.14499 9.55922 8.53551 9.94975L10.6568 12.0711L8.53551 14.1924C8.14499 14.5829 8.14499 15.2161 8.53551 15.6066C8.92604 15.9971 9.5592 15.9971 9.94972 15.6066L12.071 13.4853L14.1924 15.6066C14.5829 15.9971 15.2161 15.9971 15.6066 15.6066C15.9971 15.2161 15.9971 14.5829 15.6066 14.1924L13.4853 12.0711L15.6066 9.94975Z" fill="#385075"/>
</svg>
