<svg width="24" height="24" viewBox="0 0 24 24" fill="none" xmlns="http://www.w3.org/2000/svg">
<path fill-rule="evenodd" clip-rule="evenodd" d="M5.63598 10.2931C6.14578 10.2931 6.56648 10.6746 6.62819 11.1677L6.63598 11.2931L6.63598 17.3642H12.707C13.2593 17.3642 13.707 17.8119 13.707 18.3642C13.707 18.874 13.3256 19.2947 12.8325 19.3564L12.707 19.3642L5.63598 19.3642C5.12618 19.3642 4.70548 18.9827 4.64377 18.4896L4.63598 18.3642L4.63598 11.2931C4.63598 10.7408 5.0837 10.2931 5.63598 10.2931ZM19.3639 5.63627L19.3639 12.7073C19.3639 13.2596 18.9162 13.7073 18.3639 13.7073C17.8116 13.7073 17.3639 13.2596 17.3639 12.7073L17.3639 6.63627L11.2928 6.63627C10.7406 6.63627 10.2928 6.18856 10.2928 5.63627C10.2928 5.08399 10.7406 4.63627 11.2928 4.63627H18.3639C18.9162 4.63627 19.3639 5.08399 19.3639 5.63627Z" fill="#0E1111"/>
</svg>
