<svg width="24" height="24" viewBox="0 0 24 24" fill="none" xmlns="http://www.w3.org/2000/svg">
<path fill-rule="evenodd" clip-rule="evenodd" d="M20.8958 2H3.10417C2.49479 2 2 2.49479 2 3.10417V20.8958C2 21.5052 2.49479 22 3.10417 22H12V14.0833H9.60938V11.1667H12V9.01042C12 6.42708 13.7917 5.02083 16.099 5.02083C17.2031 5.02083 18.3906 5.10417 18.6667 5.14062V7.83854H16.8281C15.5729 7.83854 15.3333 8.43229 15.3333 9.30729V11.1667H18.3229L17.9323 14.0833H15.3333V22H20.8958C21.5052 22 22 21.5052 22 20.8958V3.10417C22 2.49479 21.5052 2 20.8958 2Z" fill="#385075"/>
</svg>
