<svg width="24" height="24" viewBox="0 0 24 24" fill="none" xmlns="http://www.w3.org/2000/svg">
<path fill-rule="evenodd" clip-rule="evenodd" d="M9.5 7C10.3284 7 11 6.32843 11 5.5C11 4.67157 10.3284 4 9.5 4C8.67157 4 8 4.67157 8 5.5C8 6.32843 8.67157 7 9.5 7ZM12 3.05051C11.3647 2.40223 10.4793 2 9.5 2C7.567 2 6 3.567 6 5.5C6 6.0368 6.12085 6.54537 6.33682 7H5C3.34315 7 2 8.34315 2 10V19C2 20.6569 3.34315 22 5 22H19C20.6569 22 22 20.6569 22 19V10C22 8.34315 20.6569 7 19 7H17.6632C17.8792 6.54537 18 6.0368 18 5.5C18 3.567 16.433 2 14.5 2C13.5207 2 12.6353 2.40223 12 3.05051ZM13 5.5C13 4.67157 13.6716 4 14.5 4C15.3284 4 16 4.67157 16 5.5C16 6.32843 15.3284 7 14.5 7C13.6716 7 13 6.32843 13 5.5ZM14.5 9H12.75V12H20V10C20 9.44771 19.5523 9 19 9H14.5ZM20 14H12.75L12.75 20H19C19.5523 20 20 19.5523 20 19V14ZM10.75 12V9H9.5H5C4.44772 9 4 9.44772 4 10V12H10.75ZM4 14L4 19C4 19.5523 4.44772 20 5 20H10.75L10.75 14H4Z" fill="#0E1111"/>
</svg>
