<svg width="16" height="16" viewBox="0 0 16 16" fill="none" xmlns="http://www.w3.org/2000/svg">
<path fill-rule="evenodd" clip-rule="evenodd" d="M14 8C14 4.68629 11.3137 2 8 2C4.68629 2 2 4.68629 2 8C2 11.3137 4.68629 14 8 14C11.3137 14 14 11.3137 14 8ZM10 6C10 4.89543 9.10457 4 8 4C6.89543 4 6 4.89543 6 6C6 6.36819 6.29848 6.66667 6.66667 6.66667C7.00856 6.66667 7.29034 6.40931 7.32885 6.07775L7.33782 5.92225C7.37633 5.59069 7.65811 5.33333 8 5.33333C8.33805 5.33333 8.61733 5.58494 8.66079 5.91109L8.6666 5.97645C8.66556 5.97251 8.66269 5.97204 8.65555 5.97686L8.35123 6.24465L8.20155 6.38187L8.0984 6.48703C7.63162 6.98585 7.3697 7.60078 7.33686 8.47526L7.33333 8.66667C7.33333 9.03486 7.63181 9.33333 8 9.33333L8.07775 9.32885C8.40931 9.29034 8.66667 9.00856 8.66667 8.66667C8.66667 7.98996 8.81859 7.64209 9.13179 7.33708L9.53666 6.97617L9.62166 6.8913C9.8648 6.63496 10 6.3604 10 6ZM8.66667 12V10.6667H7.33333V12H8.66667Z" fill="#0E1111"/>
</svg>
