<svg width="16" height="16" viewBox="0 0 16 16" fill="none" xmlns="http://www.w3.org/2000/svg">
<path fill-rule="evenodd" clip-rule="evenodd" d="M8 2C11.3137 2 14 4.68629 14 8C14 11.3137 11.3137 14 8 14C4.68629 14 2 11.3137 2 8C2 4.68629 4.68629 2 8 2Z" fill="#0E1111"/>
<path fill-rule="evenodd" clip-rule="evenodd" d="M8 4C9.10457 4 10 4.89543 10 6C10 6.3604 9.8648 6.63496 9.62166 6.8913L9.53666 6.97617L9.13179 7.33708C8.81859 7.64209 8.66667 7.98996 8.66667 8.66667C8.66667 9.00856 8.40931 9.29034 8.07775 9.32885L8 9.33333C7.63181 9.33333 7.33333 9.03486 7.33333 8.66667L7.33686 8.47526C7.3697 7.60078 7.63162 6.98585 8.0984 6.48703L8.20155 6.38187L8.35123 6.24465L8.65556 5.97686C8.66269 5.97204 8.66556 5.97251 8.6666 5.97645L8.66079 5.91109C8.61733 5.58494 8.33805 5.33333 8 5.33333C7.65811 5.33333 7.37633 5.59069 7.33782 5.92225L7.32885 6.07775C7.29034 6.40931 7.00856 6.66667 6.66667 6.66667C6.29848 6.66667 6 6.36819 6 6C6 4.89543 6.89543 4 8 4ZM7.33333 10.6667H8.66667V12H7.33333V10.6667Z" fill="white"/>
</svg>
