<svg width="24" height="24" viewBox="0 0 24 24" fill="none" xmlns="http://www.w3.org/2000/svg">
<path fill-rule="evenodd" clip-rule="evenodd" d="M7.83333 2H16.1667C19.375 2 22 4.625 22 7.83333V16.1667C22 19.375 19.375 22 16.1667 22H7.83333C4.625 22 2 19.375 2 16.1667V7.83333C2 4.625 4.625 2 7.83333 2ZM19.1092 4.89028C18.3175 4.10382 17.2707 3.66632 16.1665 3.66632H7.83316C6.72899 3.66632 5.67691 4.09861 4.89045 4.89028C4.10399 5.68194 3.66649 6.72882 3.66649 7.83298V16.1663C3.66649 17.2705 4.09879 18.3226 4.89045 19.109C5.68212 19.8955 6.72899 20.333 7.83316 20.333H16.1665C17.2707 20.333 18.3227 19.9007 19.1092 19.109C19.8957 18.3174 20.3332 17.2705 20.3332 16.1663V7.83298C20.3332 6.72882 19.9009 5.67673 19.1092 4.89028Z" fill="#0E1111"/>
<path fill-rule="evenodd" clip-rule="evenodd" d="M17.4164 7.83399C16.7237 7.83399 16.1664 7.27669 16.1664 6.58398C16.1664 5.89128 16.7237 5.33398 17.4164 5.33398C18.1039 5.33398 18.6664 5.89128 18.6664 6.58398C18.6664 7.27669 18.1039 7.83399 17.4164 7.83399ZM11.9998 8.66757C13.8383 8.66757 15.3331 10.1624 15.3331 12.0009C15.3331 13.8394 13.8383 15.3342 11.9998 15.3342C10.1612 15.3342 8.66643 13.8394 8.66643 12.0009C8.66643 10.1624 10.1612 8.66757 11.9998 8.66757ZM6.99988 12.0003C6.99988 9.23988 9.23946 7.0003 11.9999 7.0003C14.7603 7.0003 16.9999 9.23988 16.9999 12.0003C16.9999 14.7607 14.7603 17.0003 11.9999 17.0003C9.23946 17.0003 6.99988 14.7607 6.99988 12.0003Z" fill="#0E1111"/>
</svg>
