<svg width="24" height="24" viewBox="0 0 24 24" fill="none" xmlns="http://www.w3.org/2000/svg">
<g clip-path="url(#clip0_12_1396)">
<path d="M23.414 20.5908L18.769 15.9458C20.1833 13.8286 20.7596 11.2611 20.3857 8.74263C20.0118 6.22413 18.7145 3.93475 16.7461 2.3198C14.7777 0.704843 12.279 -0.120212 9.73603 0.00511793C7.19302 0.130448 4.78754 1.1972 2.9875 2.99788C1.18746 4.79856 0.121559 7.20441 -0.00287252 9.74746C-0.127304 12.2905 0.698635 14.7889 2.31428 16.7567C3.92993 18.7245 6.21978 20.021 8.7384 20.394C11.257 20.767 13.8243 20.1899 15.941 18.7748L20.586 23.4188C20.9642 23.7877 21.4716 23.9942 22 23.9942C22.5283 23.9942 23.0358 23.7877 23.414 23.4188C23.7889 23.0437 23.9996 22.5351 23.9996 22.0048C23.9996 21.4744 23.7889 20.9658 23.414 20.5908ZM10.25 3.00478C11.6839 3.00478 13.0856 3.42998 14.2779 4.22662C15.4701 5.02327 16.3994 6.15556 16.9481 7.48032C17.4968 8.80509 17.6404 10.2628 17.3607 11.6692C17.0809 13.0755 16.3904 14.3674 15.3765 15.3813C14.3626 16.3952 13.0707 17.0857 11.6644 17.3655C10.258 17.6452 8.80029 17.5016 7.47553 16.9529C6.15076 16.4042 5.01847 15.4749 4.22183 14.2827C3.42519 13.0904 2.99998 11.6887 2.99998 10.2548C3.0021 8.33261 3.76662 6.48977 5.1258 5.13059C6.48498 3.77141 8.32781 3.0069 10.25 3.00478Z" fill="#385075"/>
</g>
<defs>
<clipPath id="clip0_12_1396">
<rect width="24" height="24" fill="white"/>
</clipPath>
</defs>
</svg>
