<svg width="16" height="16" viewBox="0 0 16 16" fill="none" xmlns="http://www.w3.org/2000/svg">
<path fill-rule="evenodd" clip-rule="evenodd" d="M7.9999 1.99902C4.68619 1.99902 1.99951 4.6857 1.99951 7.99941C1.99951 11.3131 4.68619 13.9998 7.9999 13.9998C11.3136 13.9998 14.0003 11.3131 14.0003 7.99941C14.0003 4.6857 11.3136 1.99902 7.9999 1.99902ZM7.25 11.0002C7.05198 11.0002 6.86072 10.9222 6.71971 10.7805L5.21961 9.28036C4.92634 8.98709 4.92634 8.51306 5.21961 8.21979C5.51288 7.92652 5.98691 7.92652 6.28018 8.21979L7.13374 9.07335L9.62615 5.3336C9.85567 4.98858 10.3207 4.89557 10.6665 5.12584C11.0107 5.3561 11.1037 5.82114 10.8742 6.16616L7.87404 10.6665C7.74953 10.8532 7.54702 10.9747 7.32425 10.9965C7.29875 10.9987 7.27475 11.0002 7.25 11.0002Z" fill="#0E1111"/>
</svg>
