<svg width="20" height="20" viewBox="0 0 20 20" fill="none" xmlns="http://www.w3.org/2000/svg">
<g clip-path="url(#clip0_2164_5967)">
<path d="M10 7C9.73478 7 9.48043 7.10536 9.29289 7.29289C9.10536 7.48043 9 7.73478 9 8V15C9 15.2652 9.10536 15.5196 9.29289 15.7071C9.48043 15.8946 9.73478 16 10 16C10.2652 16 10.5196 15.8946 10.7071 15.7071C10.8946 15.5196 11 15.2652 11 15V8C11 7.73478 10.8946 7.48043 10.7071 7.29289C10.5196 7.10536 10.2652 7 10 7Z" fill="#0E1111"/>
<path d="M19 4H15V3C15 2.20435 14.6839 1.44129 14.1213 0.87868C13.5587 0.31607 12.7956 0 12 0L8 0C7.20435 0 6.44129 0.31607 5.87868 0.87868C5.31607 1.44129 5 2.20435 5 3V4H1C0.734784 4 0.48043 4.10536 0.292893 4.29289C0.105357 4.48043 0 4.73478 0 5C0 5.26522 0.105357 5.51957 0.292893 5.70711C0.48043 5.89464 0.734784 6 1 6H1.28L2.89 17.42C2.99188 18.1408 3.3524 18.8 3.90436 19.2747C4.45631 19.7494 5.16204 20.0072 5.89 20H14.17C14.898 20.0072 15.6037 19.7494 16.1556 19.2747C16.7076 18.8 17.0681 18.1408 17.17 17.42L18.72 6H19C19.2652 6 19.5196 5.89464 19.7071 5.70711C19.8946 5.51957 20 5.26522 20 5C20 4.73478 19.8946 4.48043 19.7071 4.29289C19.5196 4.10536 19.2652 4 19 4ZM7 3C7 2.73478 7.10536 2.48043 7.29289 2.29289C7.48043 2.10536 7.73478 2 8 2H12C12.2652 2 12.5196 2.10536 12.7071 2.29289C12.8946 2.48043 13 2.73478 13 3V4H7V3ZM15.13 17.14C15.096 17.3803 14.9759 17.6 14.7919 17.7582C14.6079 17.9165 14.3727 18.0024 14.13 18H5.86C5.61735 18.0024 5.3821 17.9165 5.19812 17.7582C5.01413 17.6 4.89396 17.3803 4.86 17.14L3.3 6H16.7L15.13 17.14Z" fill="#0E1111"/>
<path d="M14 7.11019C13.7377 7.08207 13.4748 7.15879 13.2688 7.32363C13.0628 7.48846 12.9302 7.72805 12.9 7.99019L12.12 14.9902C12.0909 15.2554 12.1683 15.5213 12.3352 15.7295C12.5021 15.9377 12.7448 16.071 13.01 16.1002C13.2753 16.1294 13.5412 16.052 13.7494 15.8851C13.9575 15.7182 14.0909 15.4754 14.12 15.2102L14.9 8.21019C14.9139 8.07875 14.9015 7.94587 14.8636 7.81925C14.8258 7.69263 14.7632 7.57476 14.6795 7.47247C14.5958 7.37018 14.4927 7.2855 14.376 7.22332C14.2594 7.16113 14.1316 7.12268 14 7.11019Z" fill="#0E1111"/>
<path d="M6.00007 7.11019C5.86938 7.12391 5.74267 7.16326 5.6272 7.22598C5.51172 7.2887 5.40974 7.37357 5.32708 7.47573C5.24443 7.57789 5.18272 7.69534 5.14548 7.82136C5.10824 7.94739 5.09621 8.07951 5.11007 8.21019L5.89007 15.2102C5.91924 15.4754 6.05258 15.7182 6.26074 15.8851C6.46891 16.052 6.73485 16.1294 7.00007 16.1002C7.26529 16.071 7.50805 15.9377 7.67496 15.7295C7.84187 15.5214 7.91924 15.2554 7.89007 14.9902L7.11007 8.00019C7.0964 7.86856 7.05673 7.74095 6.99337 7.62476C6.93001 7.50857 6.84422 7.40612 6.74097 7.32333C6.63772 7.24055 6.51907 7.17908 6.39189 7.14249C6.26471 7.1059 6.13153 7.09493 6.00007 7.11019Z" fill="#0E1111"/>
</g>
</svg>
