<svg width="24" height="24" viewBox="0 0 24 24" fill="none" xmlns="http://www.w3.org/2000/svg">
<path d="M5.87713 19.2785L4.15046 7H19.8495L18.1229 19.2785C17.984 20.2658 17.1393 21 16.1424 21H7.85764C6.86068 21 6.01596 20.2658 5.87713 19.2785Z" stroke="#0E1111" stroke-width="2"/>
<line x1="12" y1="10" x2="12" y2="17" stroke="black" stroke-width="2" stroke-linecap="round"/>
<path d="M10 3H14C15.1046 3 16 3.89543 16 5V7H8V5C8 3.89543 8.89543 3 10 3Z" stroke="#0E1111" stroke-width="2"/>
<line x1="3" y1="7" x2="21" y2="7" stroke="#0E1111" stroke-width="2" stroke-linecap="round"/>
<line x1="15.8835" y1="10.1043" x2="15.1043" y2="17.1165" stroke="black" stroke-width="2" stroke-linecap="round"/>
<line x1="1" y1="-1" x2="8.05539" y2="-1" transform="matrix(0.110432 0.993884 0.993884 -0.110432 9 9)" stroke="black" stroke-width="2" stroke-linecap="round"/>
</svg>
